<?xml version="1.0"?>
<svg xmlns="http://www.w3.org/2000/svg" viewBox="0 0 50 50" enable-background="new 0 0 50 50">
    <path style="text-indent:0;text-align:start;line-height:normal;text-transform:none;block-progression:tb;-inkscape-font-specification:Bitstream Vera Sans" d="M 6 1 L 6 2 L 6 5 C 6 6.6449698 7.3550302 8 9 8 L 11 8 L 11 14.71875 C 11 17.726959 12.497606 20.550862 15 22.21875 L 19.1875 25 L 15 27.78125 C 12.497882 29.450078 11 32.273917 11 35.28125 L 11 42 L 9 42 C 7.3550302 42 6 43.35503 6 45 L 6 48 L 6 49 L 7 49 L 43 49 L 44 49 L 44 48 L 44 45 C 44 43.35503 42.64497 42 41 42 L 39 42 L 39 35.28125 C 39 32.273917 37.502118 29.450078 35 27.78125 L 30.8125 25 L 35 22.21875 C 37.502394 20.550862 39 17.726959 39 14.71875 L 39 8 L 41 8 C 42.64497 8 44 6.6449698 44 5 L 44 2 L 44 1 L 43 1 L 7 1 L 6 1 z M 8 3 L 42 3 L 42 5 C 42 5.5650302 41.56503 6 41 6 L 9 6 C 8.4349698 6 8 5.5650302 8 5 L 8 3 z M 13 8 L 37 8 L 37 14.71875 C 37 17.060541 35.822606 19.233138 33.875 20.53125 L 28.4375 24.15625 L 27.1875 25 L 28.4375 25.84375 L 33.875 29.46875 C 35.822882 30.767922 37 32.940583 37 35.28125 L 37 42 L 13 42 L 13 35.28125 C 13 32.940583 14.177118 30.767922 16.125 29.46875 L 21.5625 25.84375 L 22.8125 25 L 21.5625 24.15625 L 16.125 20.53125 C 14.177394 19.233138 13 17.060541 13 14.71875 L 13 8 z M 9 44 L 41 44 C 41.56503 44 42 44.43497 42 45 L 42 47 L 8 47 L 8 45 C 8 44.43497 8.4349698 44 9 44 z" overflow="visible" enable-background="accumulate" font-family="Bitstream Vera Sans"/>
</svg>
